<svg width="40" height="40" viewBox="0 0 40 40" fill="none" xmlns="http://www.w3.org/2000/svg">
<rect y="0.000488281" width="40" height="40" rx="8" fill="#9297C4"/>
<path d="M29.0001 9.50049H25.2501V11.0005H29.0001V29.0005H25.2501V30.5005H29.0001C29.3975 30.4993 29.7784 30.3409 30.0594 30.0598C30.3405 29.7788 30.4989 29.3979 30.5001 29.0005V11.0005C30.4989 10.603 30.3405 10.2222 30.0594 9.94114C29.7784 9.66009 29.3975 9.50168 29.0001 9.50049ZM18.5001 20.7505H14.0001C13.9 20.7445 13.7998 20.7598 13.7061 20.7953C13.6124 20.8309 13.5272 20.8859 13.4564 20.9568C13.3855 21.0277 13.3304 21.1128 13.2949 21.2065C13.2593 21.3002 13.244 21.4004 13.2501 21.5005V26.0005C13.244 26.1005 13.2593 26.2007 13.2949 26.2945C13.3304 26.3882 13.3855 26.4733 13.4564 26.5442C13.5272 26.6151 13.6124 26.6701 13.7061 26.7057C13.7998 26.7412 13.9 26.7565 14.0001 26.7505H18.5001C18.6001 26.7565 18.7003 26.7412 18.794 26.7057C18.8878 26.6701 18.9729 26.6151 19.0437 26.5442C19.1146 26.4733 19.1697 26.3882 19.2052 26.2945C19.2408 26.2007 19.2561 26.1005 19.2501 26.0005V21.5005C19.2561 21.4004 19.2408 21.3002 19.2052 21.2065C19.1697 21.1128 19.1146 21.0277 19.0437 20.9568C18.9729 20.8859 18.8878 20.8309 18.794 20.7953C18.7003 20.7598 18.6001 20.7445 18.5001 20.7505ZM17.7501 25.2505H14.7501V22.2505H17.7501V25.2505Z" fill="white"/>
<path d="M26.7501 26.0003V21.5003C26.7561 21.4002 26.7408 21.3 26.7052 21.2063C26.6697 21.1126 26.6146 21.0275 26.5437 20.9566C26.4729 20.8857 26.3878 20.8307 26.294 20.7951C26.2003 20.7596 26.1001 20.7443 26.0001 20.7503H21.5001C21.4 20.7443 21.2998 20.7596 21.2061 20.7951C21.1124 20.8307 21.0272 20.8857 20.9564 20.9566C20.8855 21.0275 20.8304 21.1126 20.7949 21.2063C20.7593 21.3 20.744 21.4002 20.7501 21.5003V26.0003C20.744 26.1004 20.7593 26.2006 20.7949 26.2943C20.8304 26.388 20.8855 26.4731 20.9564 26.544C21.0272 26.6149 21.1124 26.6699 21.2061 26.7055C21.2998 26.741 21.4 26.7563 21.5001 26.7503H26.0001C26.199 26.7503 26.3897 26.6713 26.5304 26.5306C26.671 26.39 26.7501 26.1992 26.7501 26.0003ZM25.2501 25.2503H22.2501V22.2503H25.2501V25.2503ZM18.5001 13.2503H14.0001C13.9 13.2443 13.7998 13.2596 13.7061 13.2951C13.6124 13.3307 13.5272 13.3857 13.4564 13.4566C13.3855 13.5275 13.3304 13.6126 13.2949 13.7063C13.2593 13.8 13.244 13.9002 13.2501 14.0003V18.5003C13.244 18.6004 13.2593 18.7006 13.2949 18.7943C13.3304 18.888 13.3855 18.9731 13.4564 19.044C13.5272 19.1149 13.6124 19.1699 13.7061 19.2055C13.7998 19.241 13.9 19.2563 14.0001 19.2503H18.5001C18.6001 19.2563 18.7003 19.241 18.794 19.2055C18.8878 19.1699 18.9729 19.1149 19.0437 19.044C19.1146 18.9731 19.1697 18.888 19.2052 18.7943C19.2408 18.7006 19.2561 18.6004 19.2501 18.5003V14.0003C19.2561 13.9002 19.2408 13.8 19.2052 13.7063C19.1697 13.6126 19.1146 13.5275 19.0437 13.4566C18.9729 13.3857 18.8878 13.3307 18.794 13.2951C18.7003 13.2596 18.6001 13.2443 18.5001 13.2503ZM17.7501 17.7503H14.7501V14.7503H17.7501V17.7503ZM21.5001 19.2503H26.0001C26.1001 19.2563 26.2003 19.241 26.294 19.2055C26.3878 19.1699 26.4729 19.1149 26.5437 19.044C26.6146 18.9731 26.6697 18.888 26.7052 18.7943C26.7408 18.7006 26.7561 18.6004 26.7501 18.5003V14.0003C26.7561 13.9002 26.7408 13.8 26.7052 13.7063C26.6697 13.6126 26.6146 13.5275 26.5437 13.4566C26.4729 13.3857 26.3878 13.3307 26.294 13.2951C26.2003 13.2596 26.1001 13.2443 26.0001 13.2503H21.5001C21.4 13.2443 21.2998 13.2596 21.2061 13.2951C21.1124 13.3307 21.0272 13.3857 20.9564 13.4566C20.8855 13.5275 20.8304 13.6126 20.7949 13.7063C20.7593 13.8 20.744 13.9002 20.7501 14.0003V18.5003C20.7501 18.6992 20.8291 18.89 20.9697 19.0306C21.1104 19.1713 21.3011 19.2503 21.5001 19.2503ZM22.2501 14.7503H25.2501V17.7503H22.2501V14.7503Z" fill="white"/>
<path d="M11 11.0005H14.75V9.50049H11C10.6025 9.50168 10.2217 9.66009 9.94065 9.94114C9.6596 10.2222 9.50119 10.603 9.5 11.0005V29.0005C9.50119 29.3979 9.6596 29.7788 9.94065 30.0598C10.2217 30.3409 10.6025 30.4993 11 30.5005H14.75V29.0005H11V11.0005Z" fill="white"/>
</svg>
