<svg width="41" height="40" viewBox="0 0 41 40" fill="none" xmlns="http://www.w3.org/2000/svg">
<rect x="0.666504" y="0.000396729" width="40" height="40" rx="4" fill="#FF0087"/>
<path d="M30.7465 24.1404C31.2715 22.8654 31.5565 21.5004 31.5565 20.0004C31.5565 18.9204 31.3915 17.8854 31.1065 16.9254C30.1315 17.1504 29.1115 17.2704 28.0465 17.2704C25.8655 17.2727 23.7158 16.7507 21.7788 15.7482C19.8418 14.7458 18.1742 13.2923 16.9165 11.5104C15.5724 14.7665 13.0341 17.3854 9.8215 18.8304C9.7615 19.2054 9.7615 19.6104 9.7615 20.0004C9.7615 21.4325 10.0436 22.8505 10.5916 24.1736C11.1396 25.4966 11.9429 26.6988 12.9555 27.7114C15.0006 29.7565 17.7743 30.9054 20.6665 30.9054C22.2415 30.9054 23.7565 30.5604 25.1215 29.9454C25.9765 31.5804 26.3665 32.3904 26.3365 32.3904C23.8765 33.2154 21.9715 33.6204 20.6665 33.6204C17.0365 33.6204 13.5715 32.1954 11.0215 29.6304C9.46908 28.0853 8.31591 26.1857 7.6615 24.0954H5.6665V17.2704H7.3015C7.79687 14.8592 8.93574 12.627 10.5973 10.8108C12.2588 8.99457 14.3811 7.66202 16.7388 6.95455C19.0965 6.24707 21.6018 6.19107 23.9888 6.79247C26.3758 7.39387 28.5555 8.63025 30.2965 10.3704C32.1862 12.2538 33.4754 14.6548 34.0015 17.2704H35.6665V24.0954H35.5765L30.2365 29.0004L22.2865 28.1004V25.5954H29.5315L30.7465 24.1404ZM16.5715 19.6554C17.0215 19.6554 17.4565 19.8354 17.7715 20.1654C18.0881 20.4846 18.2657 20.9159 18.2657 21.3654C18.2657 21.8149 18.0881 22.2463 17.7715 22.5654C17.4565 22.8804 17.0215 23.0604 16.5715 23.0604C15.6265 23.0604 14.8615 22.3104 14.8615 21.3654C14.8615 20.4204 15.6265 19.6554 16.5715 19.6554ZM24.7465 19.6554C25.6915 19.6554 26.4415 20.4204 26.4415 21.3654C26.4415 22.3104 25.6915 23.0604 24.7465 23.0604C23.8015 23.0604 23.0365 22.3104 23.0365 21.3654C23.0365 20.9119 23.2167 20.4769 23.5374 20.1563C23.858 19.8356 24.293 19.6554 24.7465 19.6554Z" fill="white"/>
</svg>
