<svg width="40" height="40" viewBox="0 0 40 40" fill="none" xmlns="http://www.w3.org/2000/svg">
<rect width="40" height="40" rx="8" fill="#CBCAE4"/>
<path d="M25.2545 19.25H22.82C22.2791 19.25 21.7446 19.133 21.2532 18.9069C20.7617 18.6809 20.325 18.3512 19.973 17.9405L17.717 15.3095C17.365 14.8989 16.9283 14.5692 16.4368 14.3431C15.9454 14.1171 15.4109 14.0001 14.87 14H11.75C11.5511 14 11.3603 14.0791 11.2197 14.2197C11.079 14.3604 11 14.5511 11 14.75C11 14.949 11.079 15.1397 11.2197 15.2804C11.3603 15.421 11.5511 15.5 11.75 15.5H14.87C15.1946 15.5 15.5154 15.5703 15.8103 15.706C16.1052 15.8417 16.3673 16.0395 16.5785 16.286L18.833 18.917C19.2035 19.349 19.6385 19.712 20.1155 20C19.6327 20.2899 19.1996 20.6556 18.833 21.083L16.58 23.714C16.3686 23.9607 16.1063 24.1587 15.8111 24.2944C15.5159 24.4301 15.1949 24.5002 14.87 24.5H11.75C11.5511 24.5 11.3603 24.5791 11.2197 24.7197C11.079 24.8604 11 25.0511 11 25.25C11 25.449 11.079 25.6397 11.2197 25.7804C11.3603 25.921 11.5511 26 11.75 26H14.87C15.4109 26 15.9454 25.883 16.4368 25.6569C16.9283 25.4309 17.365 25.1012 17.717 24.6905L19.973 22.0595C20.325 21.6489 20.7617 21.3192 21.2532 21.0931C21.7446 20.8671 22.2791 20.7501 22.82 20.75H26.6195L23.18 24.7625C23.0507 24.9137 22.9868 25.1101 23.0022 25.3084C23.0177 25.5067 23.1113 25.6907 23.2625 25.82C23.4137 25.9493 23.61 26.0133 23.8083 25.9978C24.0067 25.9823 24.1907 25.8887 24.32 25.7375L28.82 20.4875C28.9362 20.3517 29.0001 20.1788 29.0001 20C29.0001 19.8213 28.9362 19.6484 28.82 19.5125L24.32 14.2625C24.1907 14.1114 24.0067 14.0177 23.8083 14.0023C23.61 13.9868 23.4137 14.0507 23.2625 14.18C23.1113 14.3093 23.0177 14.4934 23.0022 14.6917C22.9868 14.89 23.0507 15.0864 23.18 15.2375L26.6195 19.25H25.2545Z" fill="#07080A"/>
</svg>
