<svg width="80" height="80" viewBox="0 0 80 80" fill="none" xmlns="http://www.w3.org/2000/svg">
<path d="M30.2119 43.0024V76.9233L1.7754 59.1509C1.23226 58.8114 0.784149 58.339 0.473647 57.7788C0.163143 57.2186 1.24578e-05 56.5883 1.39685e-05 55.9478V25.7358C-0.000430266 25.573 0.0097227 25.4101 0.0302874 25.2485L30.2119 43.0024Z" fill="black"/>
<path d="M67.9473 25.2485C67.9674 25.4097 67.9776 25.5722 67.9776 25.7358V41.231H66.4356C65.5626 41.2325 64.7094 41.4842 63.9776 41.9556L63.833 42.0532C63.07 42.5871 62.4886 43.342 62.168 44.2163L62.167 44.2212C61.4101 43.9105 60.5842 43.8087 59.7764 43.9272L59.6133 43.9546C58.749 44.1137 57.9493 44.52 57.3106 45.1235L55.582 46.7554C54.9308 47.369 54.4766 48.1613 54.2754 49.0308L54.2383 49.2075C54.0595 50.1498 54.1852 51.1242 54.5957 51.9907L54.3623 52.104C53.6644 52.4374 53.0641 52.9435 52.6172 53.5728L52.5293 53.7007C52.0748 54.3895 51.8165 55.1896 51.7822 56.0142V56.0229L51.7813 56.0327L51.6953 58.397V58.4106C51.6627 59.4105 51.9608 60.3937 52.544 61.2065C53.0323 61.8872 53.6981 62.4155 54.4639 62.7397C54.1548 63.5383 54.0762 64.4106 54.2432 65.2544C54.3213 65.6487 54.4545 66.0266 54.6309 66.3823L37.7656 76.9233V42.9985L67.9473 25.2485Z" fill="black"/>
<path fill-rule="evenodd" clip-rule="evenodd" d="M69.0195 44.9224C69.3811 44.9225 69.7042 45.148 69.8262 45.4849L70.6953 47.894C71.0062 47.9711 71.2744 48.05 71.5 48.1304C71.7461 48.2181 72.0662 48.3537 72.46 48.5366L74.4834 47.4653C74.6484 47.3775 74.8378 47.3455 75.0225 47.3745C75.2072 47.4036 75.3778 47.4922 75.5078 47.6265L77.2871 49.4673C77.5233 49.7122 77.5899 50.0698 77.457 50.3823L76.5078 52.6069C76.6645 52.8957 76.7917 53.1434 76.8877 53.3501C76.9911 53.5741 77.119 53.8863 77.2715 54.2856L79.4824 55.2329C79.8146 55.3744 80.021 55.7065 79.999 56.062L79.836 58.6167C79.8248 58.7825 79.7656 58.9415 79.6651 59.0737C79.5644 59.2061 79.4264 59.3058 79.2695 59.3608L77.1748 60.106C77.115 60.3945 77.0518 60.6428 76.9854 60.8511C76.8778 61.1741 76.756 61.4925 76.6192 61.8042L77.6709 64.1304C77.7457 64.2935 77.7666 64.4763 77.7295 64.6519C77.6923 64.8275 77.5994 64.987 77.4649 65.106L75.4629 66.8931C75.3314 67.0106 75.1673 67.0848 74.9922 67.106C74.817 67.1271 74.6391 67.0943 74.4834 67.0112L72.4209 65.9185C72.0986 66.09 71.7653 66.2404 71.4238 66.3696L70.5235 66.7075L69.7236 68.9224C69.6638 69.0841 69.5563 69.2244 69.416 69.3247C69.2756 69.425 69.1081 69.4808 68.9356 69.4849L66.5967 69.5376C66.4197 69.5416 66.2458 69.4914 66.0986 69.3931C65.9513 69.2946 65.8375 69.153 65.7735 68.9878L64.8311 66.4927C64.5095 66.3825 64.1909 66.264 63.876 66.1362C63.6184 66.0247 63.3646 65.9047 63.1152 65.7759L60.7774 66.7749C60.6233 66.8409 60.4531 66.8606 60.2881 66.8315C60.1231 66.8025 59.9698 66.7255 59.8477 66.6108L58.1172 64.9878C57.988 64.8678 57.9005 64.7096 57.8662 64.5366C57.8552 64.481 57.8512 64.4248 57.8516 64.3687L57.8506 64.3696C57.8507 64.3602 57.8522 64.3508 57.8526 64.3413C57.8538 64.3089 57.8563 64.2767 57.8613 64.2446C57.864 64.2276 57.8674 64.2107 57.8711 64.1938C57.8772 64.1662 57.8846 64.1388 57.8936 64.1118C57.8964 64.1031 57.8982 64.0941 57.9014 64.0854L57.9268 64.0249L58.9326 61.8335C58.7994 61.5738 58.675 61.3091 58.5606 61.0405C58.4273 60.7118 58.3042 60.3788 58.1914 60.0425L55.9883 59.3716C55.8093 59.3175 55.653 59.2061 55.544 59.0542C55.5355 59.0424 55.5293 59.0292 55.5215 59.0171C55.5059 58.9928 55.4906 58.9685 55.4776 58.9429C55.4711 58.9301 55.4658 58.9169 55.46 58.9038C55.447 58.8746 55.4344 58.8454 55.4248 58.8149C55.4217 58.805 55.4198 58.7947 55.417 58.7847C55.408 58.7522 55.4006 58.7194 55.3955 58.686C55.3935 58.6727 55.392 58.6594 55.3906 58.646C55.3891 58.631 55.3865 58.6161 55.3858 58.6011V58.5474C55.3858 58.5422 55.3846 58.5369 55.3848 58.5317L55.4717 56.1675C55.4765 56.0517 55.5048 55.9382 55.5547 55.8345L55.6113 55.7349C55.6297 55.707 55.6495 55.6802 55.6709 55.6548C55.6804 55.6435 55.6911 55.6333 55.7012 55.6226C55.7078 55.6155 55.7139 55.6079 55.7207 55.6011L55.7617 55.562C55.7656 55.5587 55.7696 55.5555 55.7735 55.5522C55.7989 55.5308 55.8257 55.511 55.8535 55.4927L55.9541 55.436L58.2647 54.3257C58.2783 54.2757 58.2925 54.2274 58.3057 54.1802C58.3388 54.0614 58.3708 53.9514 58.4014 53.8501C58.4143 53.8074 58.428 53.7666 58.4404 53.7271C58.4558 53.6782 58.4697 53.6314 58.4844 53.5874L58.5479 53.4058C58.5552 53.387 58.5639 53.3688 58.5713 53.3501C58.6227 53.2204 58.6752 53.091 58.7315 52.9634C58.796 52.817 58.8639 52.6721 58.9346 52.5288L57.9326 50.4116C57.8945 50.3316 57.8696 50.2465 57.8584 50.1597C57.8471 50.0724 57.8496 49.9835 57.8662 49.896C57.8828 49.8087 57.9128 49.7248 57.9551 49.6479C57.9974 49.5709 58.0522 49.5007 58.1172 49.4399L59.8447 47.8071C59.9353 47.7214 60.0437 47.6572 60.1611 47.6177C60.2004 47.6044 60.2411 47.594 60.2822 47.5864C60.3231 47.5789 60.3641 47.5743 60.4053 47.5728C60.4467 47.5712 60.4882 47.5723 60.5293 47.5767C60.6111 47.5854 60.6918 47.6063 60.7686 47.6382L63.1045 48.6021C63.2285 48.5196 63.3476 48.4449 63.461 48.3765C63.4722 48.3697 63.4831 48.3626 63.4942 48.356C63.5455 48.3253 63.5955 48.2958 63.6445 48.2681L63.8086 48.1792C63.8716 48.146 63.9399 48.112 64.0137 48.0776C64.2348 47.9746 64.5044 47.8666 64.8223 47.7534L65.6348 45.4878C65.6954 45.3225 65.8051 45.1796 65.9492 45.0786C66.0934 44.9777 66.2655 44.9228 66.4414 44.9224H69.0195ZM67.7217 53.562C67.3872 53.562 67.0632 53.606 66.7549 53.688C66.6646 53.712 66.5758 53.7396 66.4883 53.77C66.302 53.8348 66.1225 53.9134 65.9512 54.0054C65.8461 54.0618 65.7442 54.1231 65.6455 54.189C65.5959 54.2221 65.5469 54.2561 65.499 54.2915C65.2608 54.4676 65.0446 54.6714 64.8555 54.8979C64.8176 54.9433 64.7808 54.9895 64.7451 55.0366C64.6739 55.1307 64.6079 55.2288 64.5459 55.3296C64.5149 55.38 64.4846 55.4309 64.4561 55.4829C64.3704 55.6389 64.2959 55.8016 64.2334 55.9702C64.0876 56.3639 64.0078 56.7891 64.0078 57.2329C64.0078 57.7606 64.1216 58.2618 64.3242 58.7153C64.4881 59.082 64.7098 59.4176 64.9795 59.7095C65.6586 60.4443 66.6355 60.9057 67.7217 60.9058C69.7733 60.9058 71.4356 59.2612 71.4356 57.2329C71.4356 55.2869 69.9058 53.6957 67.9697 53.5698C67.9509 53.5686 67.932 53.5678 67.9131 53.5669L67.7217 53.562Z" fill="black"/>
<path d="M33.9893 3.07666C34.6969 3.07674 35.3902 3.27584 35.9902 3.65088L62.0635 19.9468L33.9893 36.4614L5.91408 19.9468L31.9873 3.65088C32.5875 3.27575 33.2815 3.07666 33.9893 3.07666Z" fill="black"/>
</svg>
