<svg width="80" height="80" viewBox="0 0 80 80" fill="none" xmlns="http://www.w3.org/2000/svg">
<path d="M30.2119 43.0029V76.9229L1.7754 59.1514C1.23229 58.8119 0.784147 58.3395 0.473647 57.7793C0.163144 57.2191 1.25108e-05 56.5888 1.40215e-05 55.9482V25.7363C-0.000431075 25.5735 0.00972198 25.4106 0.0302875 25.249L30.2119 43.0029Z" fill="black"/>
<path d="M67.9473 25.249C67.9674 25.4102 67.9776 25.5727 67.9776 25.7363V41.2402C67.9489 41.2387 67.9203 41.2355 67.8916 41.2344L67.6944 41.2314C66.7062 41.2314 65.7393 41.5103 64.9043 42.0342L64.7383 42.1416C63.8854 42.7226 63.2236 43.5429 62.834 44.498L62.0557 46.375L62.0527 46.3809L62.0508 46.3857C61.1045 48.6881 59.3118 50.5422 57.0401 51.5664L54.834 52.5469L54.792 52.5664C53.8676 52.9913 53.0837 53.6724 52.5342 54.5293C52.0191 55.3327 51.7305 56.2594 51.6963 57.2109L51.6924 57.4014L51.6963 57.5918C51.7304 58.5434 52.0191 59.47 52.5342 60.2734C53.0837 61.1304 53.8675 61.8124 54.792 62.2373L54.8291 62.2539L57.1602 63.2939C57.6103 63.4955 58.0412 63.7312 58.4512 63.9951L37.7656 76.9229V42.999L67.9473 25.249Z" fill="black"/>
<path d="M67.6944 44.9229L67.8106 44.9277C67.8141 44.928 67.8177 44.9284 67.8213 44.9287C67.8347 44.9299 67.848 44.9311 67.8613 44.9326C68.1149 44.96 68.3592 45.0489 68.5713 45.1934C68.8297 45.3694 69.0292 45.6193 69.1436 45.9102L69.9219 47.7861C71.228 50.9684 73.7057 53.5291 76.8447 54.9404L79.0537 55.9238C79.3362 56.0544 79.5756 56.2634 79.7432 56.5254C79.9108 56.7874 80 57.0923 80 57.4033C80 57.7142 79.9107 58.0183 79.7432 58.2803C79.5756 58.5423 79.3362 58.7512 79.0537 58.8818L76.7158 59.9209C73.6537 61.2933 71.2172 63.7628 69.8877 66.8418L69.1309 68.582C69.0126 68.8652 68.8132 69.1071 68.5576 69.2773C68.302 69.4475 68.0015 69.539 67.6944 69.5391C67.3872 69.5391 67.0867 69.4475 66.8311 69.2773C66.5754 69.1071 66.3751 68.8654 66.2569 68.582L65.5 66.8418C64.4271 64.36 62.635 62.2752 60.376 60.8418C60.3485 60.8243 60.3206 60.8073 60.293 60.79C59.7748 60.4665 59.2325 60.1761 58.669 59.9238L56.334 58.8818C56.0507 58.7516 55.8108 58.5427 55.6426 58.2803C55.4744 58.0179 55.3848 57.713 55.3848 57.4014C55.3848 57.0898 55.4744 56.7848 55.6426 56.5225C55.677 56.4689 55.7138 56.4171 55.7539 56.3682C55.758 56.3632 55.7625 56.3585 55.7666 56.3535C55.8066 56.306 55.8496 56.2613 55.8945 56.2188C55.9001 56.2135 55.9056 56.2083 55.9111 56.2031C55.9532 56.1644 55.9971 56.1278 56.043 56.0938C56.0561 56.084 56.0696 56.0748 56.083 56.0654C56.162 56.0104 56.2458 55.9615 56.334 55.9209L58.5401 54.9404C60.6695 53.9841 62.4933 52.4977 63.8555 50.6484C64.0716 50.3551 64.2766 50.0532 64.4688 49.7422C64.4757 49.7309 64.4823 49.7193 64.4893 49.708C64.8074 49.1895 65.0928 48.6483 65.3399 48.0859L65.3672 48.0225C65.4007 47.945 65.4337 47.8673 65.4658 47.7891L66.2442 45.9111C66.2679 45.8507 66.2953 45.792 66.3262 45.7354C66.3397 45.7105 66.3543 45.6862 66.3692 45.6621C66.4223 45.5761 66.4831 45.495 66.5518 45.4209C66.578 45.3926 66.6054 45.3652 66.6338 45.3389C66.6907 45.286 66.7518 45.2374 66.8164 45.1934C66.881 45.1494 66.9487 45.1107 67.0186 45.0771C67.0535 45.0603 67.089 45.0444 67.125 45.0303C67.1974 45.0019 67.2719 44.9792 67.3477 44.9619C67.4607 44.9362 67.5772 44.9229 67.6944 44.9229Z" fill="black"/>
<path d="M33.9883 3.07715C34.6961 3.07715 35.39 3.27624 35.9902 3.65137L62.0635 19.9473L33.9883 36.4619L5.91408 19.9473L31.9873 3.65137C32.5874 3.27632 33.2807 3.07724 33.9883 3.07715Z" fill="black"/>
</svg>
