<svg width="236" height="48" viewBox="0 0 236 48" fill="none" xmlns="http://www.w3.org/2000/svg">
<path d="M10.062 14.3284L14.2609 11.5385L9.57511 10.5965L0.466919 8.7605L3.9673 18.3796L10.062 14.3284Z" fill="#6DC8D1"/>
<path d="M36.461 14.2608L37.4588 9.29559L39.239 0.466797L29.6199 3.96718L36.461 14.2608Z" fill="#6DC8D1"/>
<path d="M7.85907 0L0.66272 7.77509L35.6227 14.8158L32.5214 10.1499L28.5461 4.16694L7.85907 0Z" fill="#FF0087"/>
<path d="M40.2249 0.662598L37.2114 15.6261C37.2114 15.6261 37.2035 15.654 37.2035 15.666L33.1842 35.6226L43.837 28.542L48.004 7.85894L40.2209 0.662598H40.2249Z" fill="#FF0087"/>
<path d="M40.288 32.1105L33.7383 36.461L47.5323 39.239L44.0319 29.6199L40.288 32.1105Z" fill="#6DC8D1"/>
<path d="M14.8158 12.3772L4.16694 19.4578L0 40.1408L7.77509 47.3372L14.8158 12.3772Z" fill="#FF0087"/>
<path d="M40.1404 48.0001L47.3368 40.225L32.3494 37.2076L12.3768 33.1843L13.2709 34.5254L19.4574 43.8332L40.1404 48.0001Z" fill="#FF0087"/>
<path d="M11.5385 33.7383L9.89802 41.8925L8.7605 47.5323L18.3796 44.0319L11.5385 33.7383Z" fill="#6DC8D1"/>
<path d="M71.8196 24.0001C71.8196 21.3618 70.1952 18.8673 67.038 18.8673C63.8809 18.8673 62.2804 21.3618 62.2804 24.0001C62.2804 26.6384 63.8809 29.1329 67.038 29.1329C70.1952 29.1329 71.8196 26.6144 71.8196 24.0001ZM75.8229 24.0001C75.8229 28.7338 72.4303 32.5695 67.038 32.5695C61.6458 32.5695 58.2771 28.7298 58.2771 24.0001C58.2771 19.2704 61.6458 15.4268 67.038 15.4268C72.4303 15.4268 75.8229 19.2664 75.8229 24.0001Z" fill="#07080A"/>
<path d="M88.6832 24.4474C90.168 24.4474 91.3215 23.4336 91.3215 21.8331C91.3215 20.2326 90.168 19.1948 88.6832 19.1948H85.2227V24.4474H88.6832ZM86.8672 27.8879H85.2187V32.2424H81.2155V15.7583H89.246C92.7304 15.7583 95.3208 18.3966 95.3208 21.8331C95.3208 24.3995 93.8839 26.471 91.7406 27.389L96.2148 32.2385H90.8226L86.8672 27.8839V27.8879Z" fill="#07080A"/>
<path d="M100.346 32.2424V15.7583H104.349V32.2424H100.346Z" fill="#07080A"/>
<path d="M117.86 23.4572H127.395V23.7885C127.395 28.8734 123.958 32.5734 118.778 32.5734C113.29 32.5734 109.925 28.6659 109.925 24.004C109.925 19.3422 113.341 15.4307 118.778 15.4307C122.945 15.4307 125.958 17.7616 127.02 21.4576H123.064C122.358 20.0446 121.041 18.8672 118.802 18.8672C115.764 18.8672 113.928 21.0105 113.928 24C113.928 27.2969 115.788 29.2526 118.754 29.2526C120.921 29.2526 122.402 28.171 123.016 26.7341H117.86V23.4612V23.4572Z" fill="#07080A"/>
<path d="M137.257 26.6386H141.755L139.52 20.4202L137.261 26.6386H137.257ZM142.933 29.9115H136.08L135.253 32.2424H130.919L138.007 15.7583H141.021L148.109 32.2424H143.775L142.929 29.9115H142.933Z" fill="#07080A"/>
<path d="M161.528 26.4031L168.05 15.7583H170.736V32.2424H166.873V24.2598L161.528 32.4779L156.184 24.2598V32.2424H152.32V15.7583H155.007L161.528 26.4031Z" fill="#07080A"/>
<path d="M176.217 32.2424V15.7583H180.22V32.2424H176.217Z" fill="#07080A"/>
<path d="M191.531 32.5695C187.859 32.5695 185.74 30.4022 185.457 27.1772H189.272C189.412 28.3786 190.075 29.3205 191.627 29.3205C192.853 29.3205 193.723 28.4983 193.723 27.5085C193.723 26.6144 193.18 26.0237 192.122 25.7443L189.931 25.1536C187.456 24.495 185.716 23.15 185.716 20.5596C185.716 17.2628 188.235 15.4268 191.464 15.4268C194.693 15.4268 196.856 17.7577 196.952 20.6314H193.304C193.256 19.5937 192.645 18.6757 191.444 18.6757C190.242 18.6757 189.652 19.2864 189.652 20.1605C189.652 21.0785 190.334 21.4576 191.372 21.737L193.491 22.3277C196.106 23.0582 197.658 24.4232 197.658 27.1772C197.658 30.5938 194.525 32.5695 191.535 32.5695H191.531Z" fill="#07080A"/>
<path d="M216.801 26.6386H221.299L219.064 20.4202L216.805 26.6386H216.801ZM222.476 29.9115H215.623L214.801 32.2424H210.466L217.555 15.7583H220.568L227.657 32.2424H223.322L222.476 29.9115Z" fill="#07080A"/>
<path d="M231.983 32.2424V15.7583H235.986V32.2424H231.983Z" fill="#07080A"/>
</svg>
