<svg width="178" height="18" viewBox="0 0 178 18" fill="none" xmlns="http://www.w3.org/2000/svg">
<path d="M13.8202 9.00043C13.8202 6.36215 12.1958 3.86755 9.0386 3.86755C5.88144 3.86755 4.28091 6.36215 4.28091 9.00043C4.28091 11.6387 5.88144 14.1333 9.0386 14.1333C12.1958 14.1333 13.8202 11.6148 13.8202 9.00043ZM17.8236 9.00043C17.8236 13.7342 14.4309 17.5699 9.0386 17.5699C3.64629 17.5699 0.27758 13.7302 0.27758 9.00043C0.27758 4.27068 3.64629 0.42701 9.0386 0.42701C14.4309 0.42701 17.8236 4.26669 17.8236 9.00043Z" fill="#07080A"/>
<path d="M30.684 9.44749C32.1688 9.44749 33.3223 8.43369 33.3223 6.83315C33.3223 5.23262 32.1688 4.19487 30.684 4.19487H27.2235V9.44749H30.684ZM28.8679 12.888H27.2195V17.2426H23.2162V0.758316H31.2468C34.7312 0.758316 37.3216 3.3966 37.3216 6.83315C37.3216 9.39959 35.8847 11.4711 33.7414 12.3891L38.2157 17.2386H32.8234L28.8679 12.884V12.888Z" fill="#07080A"/>
<path d="M42.3465 17.2426V0.758339H46.3498V17.2426H42.3465Z" fill="#07080A"/>
<path d="M59.8606 8.4575H69.396V8.78878C69.396 13.8738 65.9594 17.5738 60.7786 17.5738C55.2905 17.5738 51.9258 13.6662 51.9258 9.00432C51.9258 4.34242 55.3424 0.430893 60.7786 0.430893C64.9456 0.430893 67.9591 2.76184 69.0208 6.45783H65.0654C64.3589 5.0449 63.0417 3.86745 60.8026 3.86745C57.7652 3.86745 55.9292 6.0108 55.9292 9.00033C55.9292 12.2972 57.7891 14.2529 60.7547 14.2529C62.922 14.2529 64.4028 13.1713 65.0175 11.7344H59.8606V8.46149V8.4575Z" fill="#07080A"/>
<path d="M79.2582 11.6388H83.7565L81.5213 5.42024L79.2622 11.6388H79.2582ZM84.9339 14.9117H78.0808L77.2546 17.2426H72.92L80.0086 0.758339H83.0221L90.1107 17.2426H85.7761L84.9299 14.9117H84.9339Z" fill="#07080A"/>
<path d="M103.53 11.4033L110.052 0.758339H112.738V17.2426H108.874V9.25992L103.53 17.4781L98.1853 9.25992V17.2426H94.3217V0.758339H97.0079L103.53 11.4033Z" fill="#07080A"/>
<path d="M118.218 17.2426V0.758339H122.221V17.2426H118.218Z" fill="#07080A"/>
<path d="M133.533 17.5699C129.861 17.5699 127.742 15.4026 127.458 12.1775H131.274C131.414 13.3789 132.076 14.3209 133.629 14.3209C134.854 14.3209 135.724 13.4987 135.724 12.5088C135.724 11.6148 135.182 11.024 134.124 10.7446L131.933 10.1539C129.458 9.49535 127.718 8.15027 127.718 5.55988C127.718 2.26302 130.236 0.427002 133.465 0.427002C136.694 0.427002 138.858 2.75795 138.953 5.63172H135.305C135.257 4.59397 134.647 3.67596 133.445 3.67596C132.244 3.67596 131.653 4.28664 131.653 5.16074C131.653 6.07876 132.336 6.45793 133.373 6.73733L135.493 7.32805C138.107 8.05847 139.66 9.42351 139.66 12.1775C139.66 15.5941 136.527 17.5699 133.537 17.5699H133.533Z" fill="#07080A"/>
<path d="M158.802 11.6388H163.301L161.065 5.42024L158.806 11.6388H158.802ZM164.478 14.9117H157.625L156.803 17.2426H152.468L159.557 0.758339H162.57L169.659 17.2426H165.324L164.478 14.9117Z" fill="#07080A"/>
<path d="M173.985 17.2426V0.758316H177.988V17.2426H173.985Z" fill="#07080A"/>
</svg>
