<svg width="48" height="48" viewBox="0 0 48 48" fill="none" xmlns="http://www.w3.org/2000/svg">
<path d="M10.0621 14.3285L14.261 11.5386L9.57517 10.5966L0.466906 8.76058L3.96732 18.3797L10.0621 14.3285Z" fill="#6DC8D1"/>
<path d="M36.4612 14.261L37.4591 9.29577L39.2392 0.466904L29.6201 3.96732L36.4612 14.261Z" fill="#6DC8D1"/>
<path d="M7.85908 0L0.662672 7.77515L35.6229 14.8159L32.5216 10.15L28.5463 4.16697L7.85908 0Z" fill="#FF0087"/>
<path d="M40.2253 0.662674L37.2118 15.6263C37.2118 15.6263 37.2038 15.6542 37.2038 15.6662L33.1845 35.6229L43.8374 28.5423L48.0044 7.85908L40.2213 0.662674H40.2253Z" fill="#FF0087"/>
<path d="M40.2883 32.1107L33.7385 36.4612L47.5326 39.2392L44.0322 29.6201L40.2883 32.1107Z" fill="#6DC8D1"/>
<path d="M14.8159 12.3774L4.16697 19.458L0 40.1412L7.77515 47.3376L14.8159 12.3774Z" fill="#FF0087"/>
<path d="M40.1407 48.0004L47.3371 40.2253L32.3496 37.2078L12.3769 33.1845L13.271 34.5256L19.4575 43.8334L40.1407 48.0004Z" fill="#FF0087"/>
<path d="M11.5386 33.7385L9.89811 41.8929L8.76058 47.5326L18.3797 44.0322L11.5386 33.7385Z" fill="#6DC8D1"/>
</svg>
